<svg id="Layer_1" enable-background="new 0 0 512 512" height="512" viewBox="0 0 512 512" width="512" xmlns="http://www.w3.org/2000/svg"><g><path d="m463.68 207.68c0 43.58-13.35 85.29-38.6 120.63-24.2 33.86-57.41 59.37-96.16 73.89l-66.56 106.28c-1.38 2.19-3.78 3.52-6.36 3.52s-4.98-1.33-6.36-3.52l-66.56-106.28c-38.75-14.52-71.96-40.03-96.16-73.89-25.25-35.34-38.6-77.05-38.6-120.63 0-110.65 86.99-201.38 196.18-207.36 3.81-.21 7.64-.32 11.5-.32 114.52 0 207.68 93.17 207.68 207.68z" fill="#f4536f"/><path d="m463.68 207.68c0 43.58-13.35 85.29-38.6 120.63-24.2 33.86-57.41 59.37-96.16 73.89l-66.56 106.28c-1.38 2.19-3.78 3.52-6.36 3.52l49.92-109.8c38.75-14.52 71.96-40.03 96.16-73.89 25.25-35.34 38.6-77.05 38.6-120.63 0-110.65-86.99-201.38-196.18-207.36 3.81-.21 7.64-.32 11.5-.32 114.52 0 207.68 93.17 207.68 207.68z" fill="#cc5466"/><path d="m426.48 207.68c0 94.16-76.32 170.49-170.48 170.49-3.53 0-7.03-.11-10.5-.32-89.27-5.42-159.98-79.54-159.98-170.17 0-90.62 70.71-164.74 159.98-170.16 3.47-.21 6.97-.32 10.5-.32 94.16 0 170.48 76.33 170.48 170.48z" fill="#e7f3f7"/><path d="m426.48 207.68c0 94.16-76.32 170.49-170.48 170.49-3.53 0-7.03-.11-10.5-.32 89.27-5.42 159.98-79.54 159.98-170.17 0-90.62-70.71-164.74-159.98-170.16 3.47-.21 6.97-.32 10.5-.32 94.16 0 170.48 76.33 170.48 170.48z" fill="#cbe6ef"/><path d="m275.58 148.1c-.94 1.27-2.43 2.02-4.01 2.02h-65.59c-1.6 0-3.11-.77-4.05-2.07s-1.2-2.98-.69-4.5l10.81-32.57c.68-2.05 2.59-3.43 4.74-3.43h44.86c2.2 0 4.14 1.44 4.79 3.55l9.91 32.57c.46 1.51.18 3.16-.77 4.43z" fill="#6f7f8f"/><path d="m275.58 148.1c-.94 1.27-2.43 2.02-4.01 2.02h-19c1.58 0 3.07-.75 4.01-2.02.95-1.27 1.23-2.92.77-4.43l-9.91-32.57c-.65-2.11-2.59-3.55-4.79-3.55h19c2.2 0 4.14 1.44 4.79 3.55l9.91 32.57c.46 1.51.18 3.16-.77 4.43z" fill="#57616c"/><path d="m383.98 219.6v42.11c0 2.77-2.24 5-5 5h-243.96c-2.76 0-5-2.23-5-5v-42.23c0-7.58 4.56-14.29 11.6-17.09l26.46-10.53 14.07-40.38c2.57-7.39 9.55-12.36 17.38-12.36h79.63c7.83 0 14.81 4.97 17.38 12.36l13.85 39.77 58.36 10.23c8.82 1.55 15.23 9.17 15.23 18.12z" fill="#ffe26f"/><path d="m383.98 219.6v42.11c0 2.77-2.24 5-5 5h-16c2.76 0 5-2.23 5-5v-37.11c0-8.67-7.68-14.95-15.23-18.12l-42.36-15.23 58.36 10.23c8.82 1.55 15.23 9.17 15.23 18.12z" fill="#ffba4c"/><g><path d="m324.767 232.161c-16.316 0-29.59 13.258-29.59 29.554s13.274 29.554 29.59 29.554 29.59-13.258 29.59-29.554c-.001-16.297-13.274-29.554-29.59-29.554z" fill="#6f7f8f"/><path d="m219.4 261.79c0 16.3-13.27 29.56-29.59 29.56-2.95 0-5.8-.43-8.49-1.25-12.19-3.65-21.1-14.96-21.1-28.31 0-13.34 8.91-24.65 21.1-28.3 2.69-.82 5.54-1.25 8.49-1.25 16.32 0 29.59 13.26 29.59 29.55z" fill="#6f7f8f"/><g fill="#57616c"><path d="m354.356 261.79c0 16.3-13.27 29.56-29.59 29.56-2.95 0-5.8-.43-8.49-1.25 12.18-3.66 21.08-14.96 21.08-28.31 0-13.34-8.9-24.64-21.08-28.3 2.69-.82 5.54-1.25 8.49-1.25 16.32 0 29.59 13.26 29.59 29.55z"/><path d="m219.4 261.79c0 16.3-13.27 29.56-29.59 29.56-2.95 0-5.8-.43-8.49-1.25 12.18-3.66 21.08-14.96 21.08-28.31 0-13.34-8.9-24.64-21.08-28.3 2.69-.82 5.54-1.25 8.49-1.25 16.32 0 29.59 13.26 29.59 29.55z"/></g></g><path d="m310.39 191.25h-108.42c-3.38 0-5.76-3.34-4.64-6.53l15.87-45.6h65.96c7.83 0 14.81 4.97 17.38 12.36z" fill="#83d4ee"/><path d="m296.54 151.48 13.85 39.77h-18l-13.85-39.77c-2.57-7.39-9.55-12.36-17.38-12.36h18c7.83 0 14.81 4.97 17.38 12.36z" fill="#29c1e4"/></g></svg>